<svg xmlns="http://www.w3.org/2000/svg" viewBox="0 0 1120 1007" width="1120" height="1007" role="img" aria-label="23 of 43 everyday items rose more than food as a whole">
<rect width="1120" height="1007" fill="#161614"/>
<text x="64.0" y="44.0" font-family="'IBM Plex Sans', ui-sans-serif, system-ui, -apple-system, sans-serif" font-size="21" font-weight="600" fill="#f3f2ee" text-anchor="start">23 of 43 everyday items rose more than food as a whole</text>
<text x="64.0" y="70.0" font-family="'IBM Plex Sans', ui-sans-serif, system-ui, -apple-system, sans-serif" font-size="14" font-weight="400" fill="#c3c2b7" text-anchor="start">Rise in each item's price, January 2021 to December 2024, from the ONS's item indices</text>
<line x1="456.6" y1="100.0" x2="456.6" y2="927.0" stroke="#f3f2ee" stroke-width="1.2" stroke-dasharray="3 3"/>
<text x="462.6" y="96.0" font-family="'IBM Plex Mono', ui-monospace, SFMono-Regular, Menlo, monospace" font-size="12" font-weight="600" fill="#f3f2ee" text-anchor="start">all food +33.3%</text>
<text x="302.0" y="121.0" font-family="'IBM Plex Sans', ui-sans-serif, system-ui, -apple-system, sans-serif" font-size="12.5" font-weight="400" fill="#f3f2ee" text-anchor="end">Olive oil</text>
<path d="M314.0,112.0 H986.1 Q989.1,112.0 989.1,115.0 V121.0 Q989.1,124.0 986.1,124.0 H314.0 Z" fill="#e66767"/>
<text x="997.1" y="122.0" font-family="'IBM Plex Mono', ui-monospace, SFMono-Regular, Menlo, monospace" font-size="12" font-weight="400" fill="#c3c2b7" text-anchor="start" stroke="#161614" stroke-width="4" paint-order="stroke">157%</text>
<text x="302.0" y="140.0" font-family="'IBM Plex Sans', ui-sans-serif, system-ui, -apple-system, sans-serif" font-size="12.5" font-weight="400" fill="#f3f2ee" text-anchor="end">Margarine or dairy spread</text>
<path d="M314.0,131.0 H640.7 Q643.7,131.0 643.7,134.0 V140.0 Q643.7,143.0 640.7,143.0 H314.0 Z" fill="#e66767"/>
<text x="651.7" y="141.0" font-family="'IBM Plex Mono', ui-monospace, SFMono-Regular, Menlo, monospace" font-size="12" font-weight="400" fill="#c3c2b7" text-anchor="start" stroke="#161614" stroke-width="4" paint-order="stroke">77%</text>
<text x="302.0" y="159.0" font-family="'IBM Plex Sans', ui-sans-serif, system-ui, -apple-system, sans-serif" font-size="12.5" font-weight="400" fill="#f3f2ee" text-anchor="end">Tomato ketchup</text>
<path d="M314.0,150.0 H623.9 Q626.9,150.0 626.9,153.0 V159.0 Q626.9,162.0 623.9,162.0 H314.0 Z" fill="#e66767"/>
<text x="634.9" y="160.0" font-family="'IBM Plex Mono', ui-monospace, SFMono-Regular, Menlo, monospace" font-size="12" font-weight="400" fill="#c3c2b7" text-anchor="start" stroke="#161614" stroke-width="4" paint-order="stroke">73%</text>
<text x="302.0" y="178.0" font-family="'IBM Plex Sans', ui-sans-serif, system-ui, -apple-system, sans-serif" font-size="12.5" font-weight="400" fill="#f3f2ee" text-anchor="end">Sugar</text>
<path d="M314.0,169.0 H607.5 Q610.5,169.0 610.5,172.0 V178.0 Q610.5,181.0 607.5,181.0 H314.0 Z" fill="#e66767"/>
<text x="618.5" y="179.0" font-family="'IBM Plex Mono', ui-monospace, SFMono-Regular, Menlo, monospace" font-size="12" font-weight="400" fill="#c3c2b7" text-anchor="start" stroke="#161614" stroke-width="4" paint-order="stroke">69%</text>
<text x="302.0" y="197.0" font-family="'IBM Plex Sans', ui-sans-serif, system-ui, -apple-system, sans-serif" font-size="12.5" font-weight="400" fill="#f3f2ee" text-anchor="end">Tinned soup</text>
<path d="M314.0,188.0 H580.4 Q583.4,188.0 583.4,191.0 V197.0 Q583.4,200.0 580.4,200.0 H314.0 Z" fill="#e66767"/>
<text x="591.4" y="198.0" font-family="'IBM Plex Mono', ui-monospace, SFMono-Regular, Menlo, monospace" font-size="12" font-weight="400" fill="#c3c2b7" text-anchor="start" stroke="#161614" stroke-width="4" paint-order="stroke">63%</text>
<text x="302.0" y="216.0" font-family="'IBM Plex Sans', ui-sans-serif, system-ui, -apple-system, sans-serif" font-size="12.5" font-weight="400" fill="#f3f2ee" text-anchor="end">Baked beans</text>
<path d="M314.0,207.0 H549.0 Q552.0,207.0 552.0,210.0 V216.0 Q552.0,219.0 549.0,219.0 H314.0 Z" fill="#e66767"/>
<text x="560.0" y="217.0" font-family="'IBM Plex Mono', ui-monospace, SFMono-Regular, Menlo, monospace" font-size="12" font-weight="400" fill="#c3c2b7" text-anchor="start" stroke="#161614" stroke-width="4" paint-order="stroke">56%</text>
<text x="302.0" y="235.0" font-family="'IBM Plex Sans', ui-sans-serif, system-ui, -apple-system, sans-serif" font-size="12.5" font-weight="400" fill="#f3f2ee" text-anchor="end">Frozen chips</text>
<path d="M314.0,226.0 H545.1 Q548.1,226.0 548.1,229.0 V235.0 Q548.1,238.0 545.1,238.0 H314.0 Z" fill="#e66767"/>
<text x="556.1" y="236.0" font-family="'IBM Plex Mono', ui-monospace, SFMono-Regular, Menlo, monospace" font-size="12" font-weight="400" fill="#c3c2b7" text-anchor="start" stroke="#161614" stroke-width="4" paint-order="stroke">55%</text>
<text x="302.0" y="254.0" font-family="'IBM Plex Sans', ui-sans-serif, system-ui, -apple-system, sans-serif" font-size="12.5" font-weight="400" fill="#f3f2ee" text-anchor="end">Eggs, dozen</text>
<path d="M314.0,245.0 H538.4 Q541.4,245.0 541.4,248.0 V254.0 Q541.4,257.0 538.4,257.0 H314.0 Z" fill="#e66767"/>
<text x="549.4" y="255.0" font-family="'IBM Plex Mono', ui-monospace, SFMono-Regular, Menlo, monospace" font-size="12" font-weight="400" fill="#c3c2b7" text-anchor="start" stroke="#161614" stroke-width="4" paint-order="stroke">53%</text>
<text x="302.0" y="273.0" font-family="'IBM Plex Sans', ui-sans-serif, system-ui, -apple-system, sans-serif" font-size="12.5" font-weight="400" fill="#f3f2ee" text-anchor="end">Carrots</text>
<path d="M314.0,264.0 H536.9 Q539.9,264.0 539.9,267.0 V273.0 Q539.9,276.0 536.9,276.0 H314.0 Z" fill="#e66767"/>
<text x="547.9" y="274.0" font-family="'IBM Plex Mono', ui-monospace, SFMono-Regular, Menlo, monospace" font-size="12" font-weight="400" fill="#c3c2b7" text-anchor="start" stroke="#161614" stroke-width="4" paint-order="stroke">53%</text>
<text x="302.0" y="292.0" font-family="'IBM Plex Sans', ui-sans-serif, system-ui, -apple-system, sans-serif" font-size="12.5" font-weight="400" fill="#f3f2ee" text-anchor="end">Plain biscuits</text>
<path d="M314.0,283.0 H533.2 Q536.2,283.0 536.2,286.0 V292.0 Q536.2,295.0 533.2,295.0 H314.0 Z" fill="#e66767"/>
<text x="544.2" y="293.0" font-family="'IBM Plex Mono', ui-monospace, SFMono-Regular, Menlo, monospace" font-size="12" font-weight="400" fill="#c3c2b7" text-anchor="start" stroke="#161614" stroke-width="4" paint-order="stroke">52%</text>
<text x="302.0" y="311.0" font-family="'IBM Plex Sans', ui-sans-serif, system-ui, -apple-system, sans-serif" font-size="12.5" font-weight="400" fill="#f3f2ee" text-anchor="end">Frozen peas</text>
<path d="M314.0,302.0 H520.0 Q523.0,302.0 523.0,305.0 V311.0 Q523.0,314.0 520.0,314.0 H314.0 Z" fill="#e66767"/>
<text x="531.0" y="312.0" font-family="'IBM Plex Mono', ui-monospace, SFMono-Regular, Menlo, monospace" font-size="12" font-weight="400" fill="#c3c2b7" text-anchor="start" stroke="#161614" stroke-width="4" paint-order="stroke">49%</text>
<text x="302.0" y="330.0" font-family="'IBM Plex Sans', ui-sans-serif, system-ui, -apple-system, sans-serif" font-size="12.5" font-weight="400" fill="#f3f2ee" text-anchor="end">Semi-skimmed milk, two pints</text>
<path d="M314.0,321.0 H515.5 Q518.5,321.0 518.5,324.0 V330.0 Q518.5,333.0 515.5,333.0 H314.0 Z" fill="#e66767"/>
<text x="526.5" y="331.0" font-family="'IBM Plex Mono', ui-monospace, SFMono-Regular, Menlo, monospace" font-size="12" font-weight="400" fill="#c3c2b7" text-anchor="start" stroke="#161614" stroke-width="4" paint-order="stroke">48%</text>
<text x="302.0" y="349.0" font-family="'IBM Plex Sans', ui-sans-serif, system-ui, -apple-system, sans-serif" font-size="12.5" font-weight="400" fill="#f3f2ee" text-anchor="end">Potatoes</text>
<path d="M314.0,340.0 H511.3 Q514.3,340.0 514.3,343.0 V349.0 Q514.3,352.0 511.3,352.0 H314.0 Z" fill="#e66767"/>
<text x="522.3" y="350.0" font-family="'IBM Plex Mono', ui-monospace, SFMono-Regular, Menlo, monospace" font-size="12" font-weight="400" fill="#c3c2b7" text-anchor="start" stroke="#161614" stroke-width="4" paint-order="stroke">47%</text>
<text x="302.0" y="368.0" font-family="'IBM Plex Sans', ui-sans-serif, system-ui, -apple-system, sans-serif" font-size="12.5" font-weight="400" fill="#f3f2ee" text-anchor="end">Tinned tomatoes</text>
<path d="M314.0,359.0 H499.8 Q502.8,359.0 502.8,362.0 V368.0 Q502.8,371.0 499.8,371.0 H314.0 Z" fill="#e66767"/>
<text x="510.8" y="369.0" font-family="'IBM Plex Mono', ui-monospace, SFMono-Regular, Menlo, monospace" font-size="12" font-weight="400" fill="#c3c2b7" text-anchor="start" stroke="#161614" stroke-width="4" paint-order="stroke">44%</text>
<text x="302.0" y="387.0" font-family="'IBM Plex Sans', ui-sans-serif, system-ui, -apple-system, sans-serif" font-size="12.5" font-weight="400" fill="#f3f2ee" text-anchor="end">Crisps multipack</text>
<path d="M314.0,378.0 H497.4 Q500.4,378.0 500.4,381.0 V387.0 Q500.4,390.0 497.4,390.0 H314.0 Z" fill="#e66767"/>
<text x="508.4" y="388.0" font-family="'IBM Plex Mono', ui-monospace, SFMono-Regular, Menlo, monospace" font-size="12" font-weight="400" fill="#c3c2b7" text-anchor="start" stroke="#161614" stroke-width="4" paint-order="stroke">43%</text>
<text x="302.0" y="406.0" font-family="'IBM Plex Sans', ui-sans-serif, system-ui, -apple-system, sans-serif" font-size="12.5" font-weight="400" fill="#f3f2ee" text-anchor="end">Butter</text>
<path d="M314.0,397.0 H486.2 Q489.2,397.0 489.2,400.0 V406.0 Q489.2,409.0 486.2,409.0 H314.0 Z" fill="#e66767"/>
<text x="497.2" y="407.0" font-family="'IBM Plex Mono', ui-monospace, SFMono-Regular, Menlo, monospace" font-size="12" font-weight="400" fill="#c3c2b7" text-anchor="start" stroke="#161614" stroke-width="4" paint-order="stroke">41%</text>
<text x="302.0" y="425.0" font-family="'IBM Plex Sans', ui-sans-serif, system-ui, -apple-system, sans-serif" font-size="12.5" font-weight="400" fill="#f3f2ee" text-anchor="end">Large chocolate bar</text>
<path d="M314.0,416.0 H479.1 Q482.1,416.0 482.1,419.0 V425.0 Q482.1,428.0 479.1,428.0 H314.0 Z" fill="#e66767"/>
<text x="490.1" y="426.0" font-family="'IBM Plex Mono', ui-monospace, SFMono-Regular, Menlo, monospace" font-size="12" font-weight="400" fill="#c3c2b7" text-anchor="start" stroke="#161614" stroke-width="4" paint-order="stroke">39%</text>
<text x="302.0" y="444.0" font-family="'IBM Plex Sans', ui-sans-serif, system-ui, -apple-system, sans-serif" font-size="12.5" font-weight="400" fill="#f3f2ee" text-anchor="end">Cheddar</text>
<path d="M314.0,435.0 H477.1 Q480.1,435.0 480.1,438.0 V444.0 Q480.1,447.0 477.1,447.0 H314.0 Z" fill="#e66767"/>
<text x="488.1" y="445.0" font-family="'IBM Plex Mono', ui-monospace, SFMono-Regular, Menlo, monospace" font-size="12" font-weight="400" fill="#c3c2b7" text-anchor="start" stroke="#161614" stroke-width="4" paint-order="stroke">39%</text>
<text x="302.0" y="463.0" font-family="'IBM Plex Sans', ui-sans-serif, system-ui, -apple-system, sans-serif" font-size="12.5" font-weight="400" fill="#f3f2ee" text-anchor="end">Dried pasta</text>
<path d="M314.0,454.0 H472.3 Q475.3,454.0 475.3,457.0 V463.0 Q475.3,466.0 472.3,466.0 H314.0 Z" fill="#e66767"/>
<text x="483.3" y="464.0" font-family="'IBM Plex Mono', ui-monospace, SFMono-Regular, Menlo, monospace" font-size="12" font-weight="400" fill="#c3c2b7" text-anchor="start" stroke="#161614" stroke-width="4" paint-order="stroke">38%</text>
<text x="302.0" y="482.0" font-family="'IBM Plex Sans', ui-sans-serif, system-ui, -apple-system, sans-serif" font-size="12.5" font-weight="400" fill="#f3f2ee" text-anchor="end">Single yoghurt</text>
<path d="M314.0,473.0 H469.2 Q472.2,473.0 472.2,476.0 V482.0 Q472.2,485.0 469.2,485.0 H314.0 Z" fill="#e66767"/>
<text x="480.2" y="483.0" font-family="'IBM Plex Mono', ui-monospace, SFMono-Regular, Menlo, monospace" font-size="12" font-weight="400" fill="#c3c2b7" text-anchor="start" stroke="#161614" stroke-width="4" paint-order="stroke">37%</text>
<text x="302.0" y="501.0" font-family="'IBM Plex Sans', ui-sans-serif, system-ui, -apple-system, sans-serif" font-size="12.5" font-weight="400" fill="#f3f2ee" text-anchor="end">White loaf, unsliced</text>
<path d="M314.0,492.0 H463.5 Q466.5,492.0 466.5,495.0 V501.0 Q466.5,504.0 463.5,504.0 H314.0 Z" fill="#e66767"/>
<text x="474.5" y="502.0" font-family="'IBM Plex Mono', ui-monospace, SFMono-Regular, Menlo, monospace" font-size="12" font-weight="400" fill="#c3c2b7" text-anchor="start" stroke="#161614" stroke-width="4" paint-order="stroke">36%</text>
<text x="302.0" y="520.0" font-family="'IBM Plex Sans', ui-sans-serif, system-ui, -apple-system, sans-serif" font-size="12.5" font-weight="400" fill="#f3f2ee" text-anchor="end">Cauliflower</text>
<path d="M314.0,511.0 H458.7 Q461.7,511.0 461.7,514.0 V520.0 Q461.7,523.0 458.7,523.0 H314.0 Z" fill="#e66767"/>
<text x="469.7" y="521.0" font-family="'IBM Plex Mono', ui-monospace, SFMono-Regular, Menlo, monospace" font-size="12" font-weight="400" fill="#c3c2b7" text-anchor="start" stroke="#161614" stroke-width="4" paint-order="stroke">34%</text>
<text x="302.0" y="539.0" font-family="'IBM Plex Sans', ui-sans-serif, system-ui, -apple-system, sans-serif" font-size="12.5" font-weight="400" fill="#f3f2ee" text-anchor="end">Branded white sliced loaf</text>
<path d="M314.0,530.0 H454.5 Q457.5,530.0 457.5,533.0 V539.0 Q457.5,542.0 454.5,542.0 H314.0 Z" fill="#e66767"/>
<text x="465.5" y="540.0" font-family="'IBM Plex Mono', ui-monospace, SFMono-Regular, Menlo, monospace" font-size="12" font-weight="400" fill="#c3c2b7" text-anchor="start" stroke="#161614" stroke-width="4" paint-order="stroke">33%</text>
<text x="302.0" y="558.0" font-family="'IBM Plex Sans', ui-sans-serif, system-ui, -apple-system, sans-serif" font-size="12.5" font-weight="400" fill="#f3f2ee" text-anchor="end">Orange juice</text>
<path d="M314.0,549.0 H450.2 Q453.2,549.0 453.2,552.0 V558.0 Q453.2,561.0 450.2,561.0 H314.0 Z" fill="#4b4a46"/>
<text x="461.2" y="559.0" font-family="'IBM Plex Mono', ui-monospace, SFMono-Regular, Menlo, monospace" font-size="12" font-weight="400" fill="#c3c2b7" text-anchor="start" stroke="#161614" stroke-width="4" paint-order="stroke">32%</text>
<text x="302.0" y="577.0" font-family="'IBM Plex Sans', ui-sans-serif, system-ui, -apple-system, sans-serif" font-size="12.5" font-weight="400" fill="#f3f2ee" text-anchor="end">Whole milk, four pints</text>
<path d="M314.0,568.0 H444.9 Q447.9,568.0 447.9,571.0 V577.0 Q447.9,580.0 444.9,580.0 H314.0 Z" fill="#4b4a46"/>
<text x="455.9" y="578.0" font-family="'IBM Plex Mono', ui-monospace, SFMono-Regular, Menlo, monospace" font-size="12" font-weight="400" fill="#c3c2b7" text-anchor="start" stroke="#161614" stroke-width="4" paint-order="stroke">31%</text>
<text x="302.0" y="596.0" font-family="'IBM Plex Sans', ui-sans-serif, system-ui, -apple-system, sans-serif" font-size="12.5" font-weight="400" fill="#f3f2ee" text-anchor="end">Tea bags, 80</text>
<path d="M314.0,587.0 H444.6 Q447.6,587.0 447.6,590.0 V596.0 Q447.6,599.0 444.6,599.0 H314.0 Z" fill="#4b4a46"/>
<text x="455.6" y="597.0" font-family="'IBM Plex Mono', ui-monospace, SFMono-Regular, Menlo, monospace" font-size="12" font-weight="400" fill="#c3c2b7" text-anchor="start" stroke="#161614" stroke-width="4" paint-order="stroke">31%</text>
<text x="302.0" y="615.0" font-family="'IBM Plex Sans', ui-sans-serif, system-ui, -apple-system, sans-serif" font-size="12.5" font-weight="400" fill="#f3f2ee" text-anchor="end">Instant coffee</text>
<path d="M314.0,606.0 H438.3 Q441.3,606.0 441.3,609.0 V615.0 Q441.3,618.0 438.3,618.0 H314.0 Z" fill="#4b4a46"/>
<text x="449.3" y="616.0" font-family="'IBM Plex Mono', ui-monospace, SFMono-Regular, Menlo, monospace" font-size="12" font-weight="400" fill="#c3c2b7" text-anchor="start" stroke="#161614" stroke-width="4" paint-order="stroke">30%</text>
<text x="302.0" y="634.0" font-family="'IBM Plex Sans', ui-sans-serif, system-ui, -apple-system, sans-serif" font-size="12.5" font-weight="400" fill="#f3f2ee" text-anchor="end">Self-raising flour</text>
<path d="M314.0,625.0 H437.7 Q440.7,625.0 440.7,628.0 V634.0 Q440.7,637.0 437.7,637.0 H314.0 Z" fill="#4b4a46"/>
<text x="448.7" y="635.0" font-family="'IBM Plex Mono', ui-monospace, SFMono-Regular, Menlo, monospace" font-size="12" font-weight="400" fill="#c3c2b7" text-anchor="start" stroke="#161614" stroke-width="4" paint-order="stroke">30%</text>
<text x="302.0" y="653.0" font-family="'IBM Plex Sans', ui-sans-serif, system-ui, -apple-system, sans-serif" font-size="12.5" font-weight="400" fill="#f3f2ee" text-anchor="end">Pork sausages</text>
<path d="M314.0,644.0 H437.3 Q440.3,644.0 440.3,647.0 V653.0 Q440.3,656.0 437.3,656.0 H314.0 Z" fill="#4b4a46"/>
<text x="448.3" y="654.0" font-family="'IBM Plex Mono', ui-monospace, SFMono-Regular, Menlo, monospace" font-size="12" font-weight="400" fill="#c3c2b7" text-anchor="start" stroke="#161614" stroke-width="4" paint-order="stroke">29%</text>
<text x="302.0" y="672.0" font-family="'IBM Plex Sans', ui-sans-serif, system-ui, -apple-system, sans-serif" font-size="12.5" font-weight="400" fill="#f3f2ee" text-anchor="end">Lean beef mince</text>
<path d="M314.0,663.0 H435.5 Q438.5,663.0 438.5,666.0 V672.0 Q438.5,675.0 435.5,675.0 H314.0 Z" fill="#4b4a46"/>
<text x="446.5" y="673.0" font-family="'IBM Plex Mono', ui-monospace, SFMono-Regular, Menlo, monospace" font-size="12" font-weight="400" fill="#c3c2b7" text-anchor="start" stroke="#161614" stroke-width="4" paint-order="stroke">29%</text>
<text x="302.0" y="691.0" font-family="'IBM Plex Sans', ui-sans-serif, system-ui, -apple-system, sans-serif" font-size="12.5" font-weight="400" fill="#f3f2ee" text-anchor="end">Onions</text>
<path d="M314.0,682.0 H432.4 Q435.4,682.0 435.4,685.0 V691.0 Q435.4,694.0 432.4,694.0 H314.0 Z" fill="#4b4a46"/>
<text x="443.4" y="692.0" font-family="'IBM Plex Mono', ui-monospace, SFMono-Regular, Menlo, monospace" font-size="12" font-weight="400" fill="#c3c2b7" text-anchor="start" stroke="#161614" stroke-width="4" paint-order="stroke">28%</text>
<text x="302.0" y="710.0" font-family="'IBM Plex Sans', ui-sans-serif, system-ui, -apple-system, sans-serif" font-size="12.5" font-weight="400" fill="#f3f2ee" text-anchor="end">Back bacon</text>
<path d="M314.0,701.0 H431.7 Q434.7,701.0 434.7,704.0 V710.0 Q434.7,713.0 431.7,713.0 H314.0 Z" fill="#4b4a46"/>
<text x="442.7" y="711.0" font-family="'IBM Plex Mono', ui-monospace, SFMono-Regular, Menlo, monospace" font-size="12" font-weight="400" fill="#c3c2b7" text-anchor="start" stroke="#161614" stroke-width="4" paint-order="stroke">28%</text>
<text x="302.0" y="729.0" font-family="'IBM Plex Sans', ui-sans-serif, system-ui, -apple-system, sans-serif" font-size="12.5" font-weight="400" fill="#f3f2ee" text-anchor="end">Fruit squash</text>
<path d="M314.0,720.0 H422.8 Q425.8,720.0 425.8,723.0 V729.0 Q425.8,732.0 422.8,732.0 H314.0 Z" fill="#4b4a46"/>
<text x="433.8" y="730.0" font-family="'IBM Plex Mono', ui-monospace, SFMono-Regular, Menlo, monospace" font-size="12" font-weight="400" fill="#c3c2b7" text-anchor="start" stroke="#161614" stroke-width="4" paint-order="stroke">26%</text>
<text x="302.0" y="748.0" font-family="'IBM Plex Sans', ui-sans-serif, system-ui, -apple-system, sans-serif" font-size="12.5" font-weight="400" fill="#f3f2ee" text-anchor="end">Chicken breast</text>
<path d="M314.0,739.0 H418.1 Q421.1,739.0 421.1,742.0 V748.0 Q421.1,751.0 418.1,751.0 H314.0 Z" fill="#4b4a46"/>
<text x="429.1" y="749.0" font-family="'IBM Plex Mono', ui-monospace, SFMono-Regular, Menlo, monospace" font-size="12" font-weight="400" fill="#c3c2b7" text-anchor="start" stroke="#161614" stroke-width="4" paint-order="stroke">25%</text>
<text x="302.0" y="767.0" font-family="'IBM Plex Sans', ui-sans-serif, system-ui, -apple-system, sans-serif" font-size="12.5" font-weight="400" fill="#f3f2ee" text-anchor="end">Bananas</text>
<path d="M314.0,758.0 H415.6 Q418.6,758.0 418.6,761.0 V767.0 Q418.6,770.0 415.6,770.0 H314.0 Z" fill="#4b4a46"/>
<text x="426.6" y="768.0" font-family="'IBM Plex Mono', ui-monospace, SFMono-Regular, Menlo, monospace" font-size="12" font-weight="400" fill="#c3c2b7" text-anchor="start" stroke="#161614" stroke-width="4" paint-order="stroke">24%</text>
<text x="302.0" y="786.0" font-family="'IBM Plex Sans', ui-sans-serif, system-ui, -apple-system, sans-serif" font-size="12.5" font-weight="400" fill="#f3f2ee" text-anchor="end">Fish fingers</text>
<path d="M314.0,777.0 H414.4 Q417.4,777.0 417.4,780.0 V786.0 Q417.4,789.0 414.4,789.0 H314.0 Z" fill="#4b4a46"/>
<text x="425.4" y="787.0" font-family="'IBM Plex Mono', ui-monospace, SFMono-Regular, Menlo, monospace" font-size="12" font-weight="400" fill="#c3c2b7" text-anchor="start" stroke="#161614" stroke-width="4" paint-order="stroke">24%</text>
<text x="302.0" y="805.0" font-family="'IBM Plex Sans', ui-sans-serif, system-ui, -apple-system, sans-serif" font-size="12.5" font-weight="400" fill="#f3f2ee" text-anchor="end">Apples</text>
<path d="M314.0,796.0 H405.3 Q408.3,796.0 408.3,799.0 V805.0 Q408.3,808.0 405.3,808.0 H314.0 Z" fill="#4b4a46"/>
<text x="416.3" y="806.0" font-family="'IBM Plex Mono', ui-monospace, SFMono-Regular, Menlo, monospace" font-size="12" font-weight="400" fill="#c3c2b7" text-anchor="start" stroke="#161614" stroke-width="4" paint-order="stroke">22%</text>
<text x="302.0" y="824.0" font-family="'IBM Plex Sans', ui-sans-serif, system-ui, -apple-system, sans-serif" font-size="12.5" font-weight="400" fill="#f3f2ee" text-anchor="end">Tomatoes</text>
<path d="M314.0,815.0 H398.8 Q401.8,815.0 401.8,818.0 V824.0 Q401.8,827.0 398.8,827.0 H314.0 Z" fill="#4b4a46"/>
<text x="409.8" y="825.0" font-family="'IBM Plex Mono', ui-monospace, SFMono-Regular, Menlo, monospace" font-size="12" font-weight="400" fill="#c3c2b7" text-anchor="start" stroke="#161614" stroke-width="4" paint-order="stroke">20%</text>
<text x="302.0" y="843.0" font-family="'IBM Plex Sans', ui-sans-serif, system-ui, -apple-system, sans-serif" font-size="12.5" font-weight="400" fill="#f3f2ee" text-anchor="end">Breakfast cereal, ONS item 1</text>
<path d="M314.0,834.0 H394.8 Q397.8,834.0 397.8,837.0 V843.0 Q397.8,846.0 394.8,846.0 H314.0 Z" fill="#4b4a46"/>
<text x="405.8" y="844.0" font-family="'IBM Plex Mono', ui-monospace, SFMono-Regular, Menlo, monospace" font-size="12" font-weight="400" fill="#c3c2b7" text-anchor="start" stroke="#161614" stroke-width="4" paint-order="stroke">20%</text>
<text x="302.0" y="862.0" font-family="'IBM Plex Sans', ui-sans-serif, system-ui, -apple-system, sans-serif" font-size="12.5" font-weight="400" fill="#f3f2ee" text-anchor="end">Crumpets</text>
<path d="M314.0,853.0 H383.6 Q386.6,853.0 386.6,856.0 V862.0 Q386.6,865.0 383.6,865.0 H314.0 Z" fill="#4b4a46"/>
<text x="394.6" y="863.0" font-family="'IBM Plex Mono', ui-monospace, SFMono-Regular, Menlo, monospace" font-size="12" font-weight="400" fill="#c3c2b7" text-anchor="start" stroke="#161614" stroke-width="4" paint-order="stroke">17%</text>
<text x="302.0" y="881.0" font-family="'IBM Plex Sans', ui-sans-serif, system-ui, -apple-system, sans-serif" font-size="12.5" font-weight="400" fill="#f3f2ee" text-anchor="end">Basmati rice</text>
<path d="M314.0,872.0 H383.6 Q386.6,872.0 386.6,875.0 V881.0 Q386.6,884.0 383.6,884.0 H314.0 Z" fill="#4b4a46"/>
<text x="394.6" y="882.0" font-family="'IBM Plex Mono', ui-monospace, SFMono-Regular, Menlo, monospace" font-size="12" font-weight="400" fill="#c3c2b7" text-anchor="start" stroke="#161614" stroke-width="4" paint-order="stroke">17%</text>
<text x="302.0" y="900.0" font-family="'IBM Plex Sans', ui-sans-serif, system-ui, -apple-system, sans-serif" font-size="12.5" font-weight="400" fill="#f3f2ee" text-anchor="end">Oranges</text>
<path d="M314.0,891.0 H361.7 Q364.7,891.0 364.7,894.0 V900.0 Q364.7,903.0 361.7,903.0 H314.0 Z" fill="#4b4a46"/>
<text x="372.7" y="901.0" font-family="'IBM Plex Mono', ui-monospace, SFMono-Regular, Menlo, monospace" font-size="12" font-weight="400" fill="#c3c2b7" text-anchor="start" stroke="#161614" stroke-width="4" paint-order="stroke">12%</text>
<text x="302.0" y="919.0" font-family="'IBM Plex Sans', ui-sans-serif, system-ui, -apple-system, sans-serif" font-size="12.5" font-weight="400" fill="#f3f2ee" text-anchor="end">Tinned tuna</text>
<path d="M314.0,910.0 H358.6 Q361.6,910.0 361.6,913.0 V919.0 Q361.6,922.0 358.6,922.0 H314.0 Z" fill="#4b4a46"/>
<text x="369.6" y="920.0" font-family="'IBM Plex Mono', ui-monospace, SFMono-Regular, Menlo, monospace" font-size="12" font-weight="400" fill="#c3c2b7" text-anchor="start" stroke="#161614" stroke-width="4" paint-order="stroke">11%</text>
<text x="64.0" y="983.0" font-family="'IBM Plex Sans', ui-sans-serif, system-ui, -apple-system, sans-serif" font-size="12" font-weight="400" fill="#9a988f" text-anchor="start">Red: rose more than food as a whole. A trolley of all 43, in the proportions the CPI weights them, rose 37.3%.</text>
</svg>
